<svg width="1155" height="355" viewBox="0 0 1155 355" fill="none" xmlns="http://www.w3.org/2000/svg">
<path d="M1101.86 269.175C1082.1 269.175 1066.64 263.589 1055.47 252.416C1044.46 241.082 1038.95 225.213 1038.95 204.811C1038.95 193.8 1040.98 183.437 1045.02 173.722C1049.07 163.845 1055.39 155.83 1063.97 149.677C1072.55 143.524 1083.56 140.447 1097 140.447C1109.47 140.447 1119.99 143.362 1128.58 149.191C1137.16 154.858 1143.63 162.307 1148.01 171.536C1152.54 180.766 1154.81 190.805 1154.81 201.654C1154.81 204.73 1153.75 207.321 1151.65 209.426C1149.71 211.531 1147.04 212.583 1143.63 212.583H1061.3C1062.59 223.432 1066.72 232.176 1073.68 238.815C1080.65 245.292 1090.69 248.53 1103.8 248.53C1111.09 248.53 1117.24 247.882 1122.26 246.587C1127.28 245.13 1132.06 243.268 1136.59 241.001C1137.89 240.353 1139.34 240.029 1140.96 240.029C1143.55 240.029 1145.82 240.92 1147.76 242.701C1149.71 244.482 1150.68 246.749 1150.68 249.502C1150.68 251.445 1150.03 253.226 1148.74 254.845C1147.6 256.302 1146.14 257.517 1144.36 258.488C1139.02 261.565 1133.19 264.156 1126.88 266.261C1120.72 268.204 1112.38 269.175 1101.86 269.175ZM1061.3 194.61H1132.95C1132.46 186.19 1130.28 179.389 1126.39 174.208C1122.67 169.026 1118.13 165.221 1112.79 162.792C1107.45 160.363 1102.18 159.149 1097 159.149C1091.82 159.149 1086.56 160.363 1081.21 162.792C1075.87 165.221 1071.34 169.026 1067.61 174.208C1063.89 179.389 1061.78 186.19 1061.3 194.61Z" fill="#1DC873"/>
<path d="M969.859 269.175C960.953 269.175 952.857 268.204 945.571 266.261C938.446 264.318 931.807 261.646 925.654 258.245C922.902 256.302 921.525 253.631 921.525 250.23C921.525 247.801 922.416 245.616 924.197 243.672C925.978 241.567 928.245 240.515 930.998 240.515C932.455 240.515 933.912 240.839 935.37 241.487C939.742 243.43 944.518 245.13 949.7 246.587C955.043 248.044 961.277 248.773 968.402 248.773C977.793 248.773 984.594 247.316 988.804 244.401C993.176 241.325 995.362 237.034 995.362 231.528C995.362 227.966 993.581 225.213 990.019 223.27C986.618 221.327 982.084 219.708 976.417 218.413C970.912 216.955 965.082 215.498 958.929 214.041C952.776 212.421 946.866 210.316 941.199 207.726C935.694 204.973 931.16 201.33 927.597 196.796C924.197 192.1 922.497 186.109 922.497 178.823C922.497 167.812 926.464 158.663 934.398 151.377C942.332 144.09 954.153 140.447 969.859 140.447C976.498 140.447 982.732 141.014 988.561 142.147C994.552 143.281 1000.06 144.738 1005.08 146.519C1007.34 147.167 1009.04 148.462 1010.18 150.405C1011.47 152.186 1012.12 153.968 1012.12 155.749C1012.12 158.339 1011.15 160.606 1009.21 162.549C1007.43 164.492 1005.16 165.464 1002.41 165.464C1001.76 165.464 1001.19 165.464 1000.71 165.464C1000.22 165.302 999.734 165.14 999.248 164.978C995.362 163.683 991.071 162.63 986.375 161.821C981.841 161.011 976.903 160.606 971.559 160.606C962.654 160.606 955.772 162.226 950.914 165.464C946.057 168.702 943.628 172.751 943.628 177.608C943.628 181.818 945.328 185.057 948.728 187.324C952.291 189.59 956.824 191.453 962.33 192.91C967.997 194.205 973.907 195.582 980.06 197.039C986.375 198.496 992.285 200.601 997.791 203.354C1003.46 205.945 1007.99 209.588 1011.39 214.284C1014.95 218.979 1016.74 225.294 1016.74 233.228C1016.74 243.106 1012.77 251.607 1004.83 258.731C997.062 265.694 985.404 269.175 969.859 269.175Z" fill="#1DC873"/>
<path d="M792.708 267.961C789.632 267.961 787.041 266.908 784.936 264.803C782.831 262.698 781.778 260.108 781.778 257.031V152.834C781.778 149.596 782.831 146.924 784.936 144.819C787.041 142.714 789.632 141.661 792.708 141.661C795.785 141.661 798.375 142.714 800.48 144.819C802.747 146.924 803.881 149.596 803.881 152.834V162.792C809.062 157.125 815.134 152.024 822.097 147.491C829.222 142.795 838.208 140.447 849.057 140.447C858.287 140.447 866.14 142.633 872.617 147.005C879.094 151.215 884.032 156.963 887.433 164.25C890.833 171.374 892.533 179.308 892.533 188.052V257.031C892.533 260.108 891.4 262.698 889.133 264.803C887.028 266.908 884.437 267.961 881.36 267.961C878.284 267.961 875.693 266.908 873.588 264.803C871.483 262.698 870.431 260.108 870.431 257.031V190.481C870.431 181.251 868.326 174.046 864.116 168.864C860.068 163.521 853.267 160.849 843.714 160.849C834.97 160.849 827.359 163.197 820.883 167.893C814.406 172.589 808.738 178.013 803.881 184.166V257.031C803.881 260.108 802.747 262.698 800.48 264.803C798.375 266.908 795.785 267.961 792.708 267.961Z" fill="#1DC873"/>
<path d="M639.482 323.824C636.406 323.824 633.815 322.691 631.71 320.424C629.605 318.319 628.553 315.728 628.553 312.651V152.591C628.553 149.515 629.605 146.924 631.71 144.819C633.815 142.714 636.406 141.661 639.482 141.661C642.721 141.661 645.393 142.714 647.498 144.819C649.603 146.924 650.655 149.515 650.655 152.591V158.906C656.322 153.077 662.556 148.543 669.357 145.305C676.158 142.066 683.768 140.447 692.188 140.447C702.065 140.447 711.457 142.957 720.363 147.976C729.268 152.996 736.555 160.283 742.222 169.836C748.051 179.389 750.966 191.048 750.966 204.811C750.966 218.575 748.051 230.233 742.222 239.786C736.555 249.34 729.268 256.626 720.363 261.646C711.457 266.665 702.065 269.175 692.188 269.175C683.768 269.175 676.158 267.556 669.357 264.318C662.556 261.079 656.322 256.545 650.655 250.716V312.651C650.655 315.728 649.603 318.319 647.498 320.424C645.393 322.691 642.721 323.824 639.482 323.824ZM689.031 248.53C700.527 248.53 710 244.806 717.448 237.357C725.058 229.909 728.864 219.06 728.864 204.811C728.864 190.4 725.058 179.551 717.448 172.265C710 164.816 700.527 161.092 689.031 161.092C681.096 161.092 673.891 162.873 667.414 166.436C660.937 169.836 655.351 174.127 650.655 179.308V230.314C655.351 235.495 660.937 239.867 667.414 243.43C673.891 246.83 681.096 248.53 689.031 248.53Z" fill="#1DC873"/>
<path d="M469.201 267.961C466.448 267.961 464.02 266.99 461.915 265.047C459.972 262.942 459 260.513 459 257.76C459 255.17 459.729 252.903 461.186 250.96L517.292 181.981L461.672 113.488C460.214 111.545 459.486 109.278 459.486 106.687C459.486 103.61 460.457 101.101 462.4 99.1575C464.505 97.0525 467.096 96 470.173 96C474.059 96 477.054 97.4573 479.159 100.372L530.408 165.465L581.656 99.8861C583.437 97.2954 586.109 96 589.671 96C592.586 96 595.096 97.0525 597.201 99.1575C599.306 101.101 600.358 103.529 600.358 106.444C600.358 108.711 599.71 110.735 598.415 112.516L542.309 181.738L598.415 250.717C599.872 252.336 600.601 254.441 600.601 257.032C600.601 259.946 599.629 262.537 597.686 264.804C595.743 266.909 593.072 267.961 589.671 267.961C586.109 267.961 583.194 266.423 580.927 263.347L528.95 198.011L477.702 263.59C475.273 266.504 472.44 267.961 469.201 267.961Z" fill="#1DC873"/>
<g clip-path="url(#clip0_2040_884)">
<rect width="355" height="355" rx="50" fill="#1DC873"/>
<path d="M177.613 356C174.259 356 171.421 354.833 169.1 352.5C167.036 350.426 166.004 347.704 166.004 344.333V316.722C149.751 315.685 135.046 313.481 121.889 310.111C108.99 306.481 97.6386 302.593 87.8352 298.444C84.9974 297.148 82.4176 295.074 80.0958 292.222C78.0319 289.111 77 285.87 77 282.5C77 278.093 78.4189 274.333 81.2567 271.222C84.0945 267.852 87.9642 266.167 92.8659 266.167C95.4457 266.167 97.8966 266.685 100.218 267.722C107.958 271.093 117.245 274.333 128.08 277.444C139.174 280.556 151.815 282.5 166.004 283.278V193.833C155.427 190.981 144.978 187.741 134.659 184.111C124.598 180.222 115.31 175.556 106.797 170.111C98.5415 164.407 91.963 157.407 87.0613 149.111C82.1596 140.556 79.7088 130.056 79.7088 117.611C79.7088 104.389 82.9336 92.0741 89.3831 80.6666C96.0907 69.2592 105.765 59.7963 118.406 52.2778C131.305 44.7593 147.171 40.2222 166.004 38.6667V11.0556C166.004 7.68519 167.036 4.83334 169.1 2.5C171.421 0.166667 174.259 -1 177.613 -1C181.225 -1 184.063 0.166667 186.126 2.5C188.448 4.83334 189.609 7.68519 189.609 11.0556V37.8889C202.766 38.4074 214.891 39.8333 225.985 42.1667C237.336 44.5 247.655 47.3519 256.943 50.7222C259.78 51.7593 262.231 53.4444 264.295 55.7778C266.617 58.1111 267.778 61.6111 267.778 66.2778C267.778 70.1667 266.359 73.9259 263.521 77.5556C260.941 80.9259 257.201 82.6111 252.299 82.6111C251.267 82.6111 250.235 82.4815 249.203 82.2222C248.171 81.7037 247.139 81.3148 246.107 81.0556C237.852 78.2037 228.951 75.8704 219.406 74.0556C210.119 71.9815 200.186 70.8148 189.609 70.5556V163.111C200.444 165.704 211.151 168.685 221.728 172.056C232.305 175.426 241.851 179.963 250.364 185.667C259.135 191.37 266.101 198.759 271.261 207.833C276.42 216.648 279 227.796 279 241.278C279 255.019 275.259 267.463 267.778 278.611C260.554 289.5 250.235 298.315 236.82 305.056C223.405 311.796 207.668 315.685 189.609 316.722V344.333C189.609 347.704 188.448 350.426 186.126 352.5C184.063 354.833 181.225 356 177.613 356ZM114.923 114.889C114.923 123.185 117.116 130.056 121.502 135.5C126.146 140.685 132.337 144.963 140.077 148.333C147.816 151.704 156.458 154.685 166.004 157.278V71.7222C151.041 73.7963 138.787 78.463 129.241 85.7222C119.696 92.9815 114.923 102.704 114.923 114.889ZM244.172 238.944C244.172 231.426 241.722 225.333 236.82 220.667C231.918 215.741 225.34 211.722 217.084 208.611C208.829 205.5 199.67 202.518 189.609 199.667V283.278C205.346 281.981 218.374 278.093 228.693 271.611C239.013 264.87 244.172 253.981 244.172 238.944Z" fill="white"/>
</g>
<defs>
<clipPath id="clip0_2040_884">
<rect width="355" height="355" rx="50" fill="white"/>
</clipPath>
</defs>
</svg>
